<svg viewBox="0 0 24 24" fill="currentColor" xmlns="http://www.w3.org/2000/svg"><path d="M12 2C6.477 2 2 6.477 2 12s4.477 10 10 10 10-4.477 10-10S17.523 2 12 2zm3.89 13.044c-.655.228-.737.556-.737.817 0 .343.344.572.802.572.589 0 1.014.245 1.014 1.177 0 1.373-1.636 2.06-3.81 2.06-2.322 0-3.32-.474-3.5-.589l.278-1.554c.262.13.753.507 2.128.507.965 0 1.341-.31 1.341-.752 0-.425-.376-.556-.916-.703-1.047-.278-2.078-.589-2.078-2.143 0-1.782 1.456-2.305 3.518-2.305 1.701 0 2.454.261 2.765.409l-.295 1.488a4.137 4.137 0 0 0-1.734-.392c-.85 0-1.21.31-1.21.67 0 .344.278.507.899.687 1.129.327 1.931.736 1.931 2.073-.004.03-.004.053-.004.077zM16.142 8.35c.196.229.344.54.344.931 0 1.342-1.129 2.127-1.129 2.127s-1.112-.769-1.112-2.11c0-.409.163-.736.36-.949-.197-.229-.36-.556-.36-.965 0-1.341 1.112-2.127 1.112-2.127s1.129.786 1.129 2.128c0 .392-.148.719-.344.965z"/></svg>