<svg viewBox="0 0 24 24" fill="currentColor" xmlns="http://www.w3.org/2000/svg"><path d="M17.062 10.963c.273-1.403-1.096-2.278-4.075-2.278-.667 0-2.458.12-2.458.12l-.33-1.493s1.776-.239 3.197-.239c3.085 0 5.42.923 5.42 2.723 0 .762-.486 2.376-2.613 2.924-1.724.444-2.147.536-2.147.962 0 .393.42.545 1.348.545 1.01 0 2.279-.247 2.279-.247l-.317 1.48s-1.378.33-2.736.33c-2.41 0-3.666-1.11-3.666-2.492 0-2.025 2.618-2.668 3.518-2.887.899-.219 1.258-.456 1.258-.87 0-.308-.415-.558-1.503-.558-1.077 0-2.302.181-2.302.181l.325 1.488s1.656-.254 2.626-.254c1.62-.001 2.05.503 1.876 1.165zm-3.056 9.68C6.678 20.643.5 18.067.5 12.016S6.678 3.39 14.006 3.39c7.327 0 13.506 2.576 13.506 8.627s-6.179 8.626-13.506 8.626zM14.006 1.9C5.556 1.9 0 5.093 0 12.016c0 6.924 5.556 10.117 14.006 10.117s14.006-3.193 14.006-10.117C28.012 5.093 22.456 1.9 14.006 1.9z"/></svg>